<svg width="24" height="24" viewBox="0 0 24 24" fill="none" xmlns="http://www.w3.org/2000/svg">
<g opacity="0.5" clip-path="url(#clip0_1608_59)">
<path d="M17.1819 17.7698C18.0096 17.7698 18.6806 17.0988 18.6806 16.2711C18.6806 15.4434 18.0096 14.7725 17.1819 14.7725C16.3543 14.7725 15.6833 15.4434 15.6833 16.2711C15.6833 17.0988 16.3543 17.7698 17.1819 17.7698Z" stroke="white" stroke-width="1.5" stroke-miterlimit="10" stroke-linecap="round" stroke-linejoin="round"/>
<path d="M18.4808 10.4763L18.8804 11.975C19.0802 12.4746 19.5798 12.7743 20.0794 12.6744L21.578 12.3746C22.8769 12.0749 23.7761 13.6735 22.8769 14.5727L21.8778 15.6717C21.4781 16.0714 21.4781 16.6708 21.8778 17.0704L22.8769 18.1695C23.7761 19.1686 22.8769 20.6672 21.578 20.3675L20.0794 20.0678C19.5798 19.9679 19.0802 20.2676 18.8804 20.7672L18.4808 22.2658C18.0811 23.5647 16.2827 23.5647 15.983 22.2658L15.5834 20.7672C15.3835 20.2676 14.884 19.9679 14.3844 20.0678L12.8858 20.3675C11.5869 20.6672 10.6877 19.0687 11.5869 18.1695L12.586 17.0704C12.9857 16.6708 12.9857 16.0714 12.586 15.6717L11.5869 14.5727C10.6877 13.5736 11.5869 12.0749 12.8858 12.3746L14.3844 12.6744C14.884 12.7743 15.3835 12.4746 15.5834 11.975L15.983 10.4763C16.2827 9.17749 18.0811 9.17749 18.4808 10.4763Z" stroke="white" stroke-width="1.5" stroke-miterlimit="10" stroke-linecap="round" stroke-linejoin="round"/>
<path d="M7.63859 21.4404L0.76001 23.2398L2.55442 16.3422M7.63859 21.4404L2.55442 16.3422M7.63859 21.4404L8.5358 20.5407M2.55442 16.3422L17.0094 1.84721C18.4051 0.447696 20.6979 0.347731 22.1933 1.84721C23.5889 3.24672 23.5889 5.54588 22.1933 7.04536L20.9084 8.33026M16.6106 2.24704L21.8011 7.43751M16.2178 7.04536L14.0187 4.84623" stroke="white" stroke-width="1.5" stroke-miterlimit="10" stroke-linecap="round" stroke-linejoin="round"/>
</g>
<defs>
<clipPath id="clip0_1608_59">
<rect width="24" height="24" fill="white"/>
</clipPath>
</defs>
</svg>
