<svg width="25" height="24" viewBox="0 0 25 24" fill="none" xmlns="http://www.w3.org/2000/svg">
<g opacity="0.5">
<path d="M10.124 1H14.3917C14.7792 1.00034 15.1507 1.15509 15.4245 1.43022L21.144 7.16978C21.4182 7.44457 21.5724 7.81737 21.5728 8.20622V21.5333C21.5728 21.9223 21.4188 22.2954 21.1447 22.5704C20.8706 22.8455 20.4988 23 20.1112 23H4.03429C3.64667 23 3.27492 22.8455 3.00083 22.5704C2.72674 22.2954 2.57275 21.9223 2.57275 21.5333V2.46667C2.57275 2.07768 2.72674 1.70463 3.00083 1.42958C3.27492 1.15452 3.64667 1 4.03429 1H5.25224" stroke="white" stroke-width="1.5" stroke-linecap="round" stroke-linejoin="round"/>
<path d="M21.5726 8.33333H15.7264C15.3388 8.33333 14.9671 8.17881 14.693 7.90376C14.4189 7.6287 14.2649 7.25565 14.2649 6.86667V1" stroke="white" stroke-width="1.5" stroke-linecap="round" stroke-linejoin="round"/>
<path d="M5.87578 8.66425C6.08624 8.9438 6.361 9.16807 6.67659 9.31791C6.99219 9.46774 7.33923 9.53869 7.68809 9.5247C8.79886 9.5247 9.69527 8.85003 9.69527 8.00914C9.69527 7.16825 8.79886 6.50336 7.68809 6.50336C6.57732 6.50336 5.68091 5.81892 5.68091 4.98781C5.68091 4.1567 6.57732 3.47225 7.68809 3.47225C8.03694 3.45826 8.38399 3.52921 8.69958 3.67904C9.01517 3.82888 9.28994 4.05315 9.50039 4.3327" stroke="white" stroke-width="1.5" stroke-linecap="round" stroke-linejoin="round"/>
<path d="M7.68799 9.52539V10.5325" stroke="white" stroke-width="1.5" stroke-linecap="round" stroke-linejoin="round"/>
<path d="M7.68799 2.46564V3.47275" stroke="white" stroke-width="1.5" stroke-linecap="round" stroke-linejoin="round"/>
<path d="M18.1625 13.2227H5.98303C5.71397 13.2227 5.49585 13.4416 5.49585 13.7116V19.5783C5.49585 19.8483 5.71397 20.0672 5.98303 20.0672H18.1625C18.4316 20.0672 18.6497 19.8483 18.6497 19.5783V13.7116C18.6497 13.4416 18.4316 13.2227 18.1625 13.2227Z" stroke="white" stroke-width="1.5" stroke-linecap="round" stroke-linejoin="round"/>
<path d="M5.49585 16.6443H18.6497" stroke="white" stroke-width="1.5" stroke-linecap="round" stroke-linejoin="round"/>
<path d="M9.88062 13.2227V20.0672" stroke="white" stroke-width="1.5" stroke-linecap="round" stroke-linejoin="round"/>
<path d="M14.2649 13.2227V20.0672" stroke="white" stroke-width="1.5" stroke-linecap="round" stroke-linejoin="round"/>
</g>
</svg>
