<svg width="25" height="24" viewBox="0 0 25 24" fill="none" xmlns="http://www.w3.org/2000/svg">
<g opacity="0.5">
<path d="M23.0278 21.75C23.0278 22.1478 22.8698 22.5294 22.5885 22.8107C22.3072 23.092 21.9257 23.25 21.5278 23.25H3.52783C3.13001 23.25 2.74848 23.092 2.46717 22.8107C2.18587 22.5294 2.02783 22.1478 2.02783 21.75V2.25C2.02783 1.85218 2.18587 1.47064 2.46717 1.18934C2.74848 0.908035 3.13001 0.75 3.52783 0.75H18.5278C18.9183 0.75056 19.2932 0.903387 19.5728 1.176L22.5728 4.059C22.7161 4.19861 22.8299 4.36547 22.9077 4.54974C22.9855 4.73401 23.0257 4.93198 23.0258 5.132L23.0278 21.75Z" stroke="white" stroke-width="1.5" stroke-linecap="round" stroke-linejoin="round"/>
<path d="M6.52783 7.5V18.75H18.5278" stroke="white" stroke-width="1.5" stroke-linecap="round" stroke-linejoin="round"/>
<path d="M6.52783 15.75L9.88983 12.612C10.2526 12.2824 10.7252 12.0997 11.2153 12.0997C11.7055 12.0997 12.1781 12.2824 12.5408 12.612L13.2668 13.29C13.4748 13.4804 13.7213 13.6236 13.9897 13.7099C14.2581 13.7962 14.5419 13.8235 14.8218 13.79C15.0991 13.7611 15.3666 13.6711 15.605 13.5265C15.8434 13.382 16.0469 13.1865 16.2008 12.954L17.7728 10.5" stroke="white" stroke-width="1.5" stroke-linecap="round" stroke-linejoin="round"/>
</g>
</svg>
