<svg width="238" height="46" viewBox="0 0 238 46" fill="none" xmlns="http://www.w3.org/2000/svg">
<path d="M117.712 28.6879C120.222 26.9352 121.943 24.1926 121.943 20.9576C121.943 15.5697 117.182 11.4746 111.729 11.4746H100.759V35.0009H106.444V30.4731H111.995L115.165 35.0009H122.137L117.712 28.6879ZM111.665 24.885H106.444V17.0519H111.502C114.148 17.0519 116.263 18.902 116.263 20.9522C116.257 23.0349 114.31 24.885 111.665 24.885Z" fill="white"/>
<path opacity="0.75" d="M169.531 11.4688H176.672L181.892 18.5391L187.145 11.4688H194.247L185.457 23.2021L194.312 34.995H187.177L181.892 27.8598L176.601 34.995H169.466L178.322 23.2021L169.531 11.4688Z" fill="white"/>
<path d="M148.547 11.4688H167.746V17.0514H154.227V20.3891H163.878V25.9069H154.227V29.3799H167.746V34.995H148.547V11.4688Z" fill="white"/>
<path d="M123.76 11.4688H145.502V17.0839H137.506V34.995H131.821V17.0839H123.76V11.4688Z" fill="white"/>
<path d="M77.99 11.4688H97.1886V17.0514H83.6755V20.3891H93.3207V25.9069H83.6755V29.3799H97.1886V34.995H77.99V11.4688Z" fill="white"/>
<path d="M56.3733 11.4688L62.9838 27.6272L69.5943 11.4688H75.8045L66.0889 34.995H59.8787L50.1631 11.4688H56.3733Z" fill="white"/>
<path d="M38.527 11.4688H28.3516V34.995H38.527C45.0023 34.995 50.255 29.7099 50.255 23.267C50.2604 16.7539 45.0077 11.4688 38.527 11.4688ZM38.7921 29.3799H34.0316V17.0893H38.7921C42.0324 17.0893 44.5424 19.8644 44.5424 23.267C44.5424 26.6048 42.0324 29.3799 38.7921 29.3799Z" fill="white"/>
<path d="M15.6932 11.4688H10.408L0 34.995H6.21021L7.23262 32.5499H18.8308L19.9559 34.995H26.1662L15.6932 11.4688ZM9.51005 27.1673L13.0479 18.4417L16.6182 27.1673H9.51005Z" fill="white"/>
<g opacity="0.75">
<path opacity="0.75" d="M225.336 18.8582L209.086 34.995H215.247L228.669 21.92L232.077 25.0522L235.701 12.502L221.934 15.7315L225.336 18.8582Z" fill="white"/>
</g>
<path opacity="0.75" d="M212.261 13.2754L196.509 16.9701L200.403 20.5513L198.223 22.5799V29.6394L204.217 24.0567L208.112 27.6378L212.261 13.2754Z" fill="white"/>
<path d="M233.05 11.49L233.883 11.2952L237.145 0L212.656 5.73957L218.715 11.306L212.196 17.738L208.691 30.0124L204.369 26.0525L198.223 31.7326V34.9946H205.759L222.783 18.4845L218.807 14.8277L233.05 11.49Z" fill="white"/>
</svg>
