<svg width="162" height="40" viewBox="0 0 162 40" fill="none" xmlns="http://www.w3.org/2000/svg">
<path d="M20.039 0.325202C17.3778 0.327125 14.7444 0.867409 12.2974 1.91354C9.85038 2.95968 7.6403 4.49004 5.80013 6.41254C3.95996 8.33505 2.52773 10.61 1.58964 13.1004C0.65154 15.5908 0.226961 18.2453 0.341448 20.9041C0.571311 25.8553 2.65027 30.5401 6.16739 34.0325C9.68452 37.525 14.3839 39.5709 19.3366 39.7659C19.574 39.7659 19.8081 39.7659 20.0455 39.7659C22.658 39.7994 25.2512 39.3138 27.6746 38.3372C30.0979 37.3607 32.3033 35.9126 34.1626 34.077C36.0219 32.2414 37.4981 30.0549 38.5057 27.6442C39.5133 25.2336 40.0322 22.6469 40.0322 20.0341C40.0322 17.4214 39.5133 14.8347 38.5057 12.4241C37.4981 10.0134 36.0219 7.82688 34.1626 5.9913C32.3033 4.15571 30.0979 2.70762 27.6746 1.73106C25.2512 0.754496 22.658 0.268898 20.0455 0.302438L20.039 0.325202ZM35.226 20.8455C35.0454 24.3205 33.677 27.6281 31.3498 30.2149C29.0225 32.8018 25.8774 34.511 22.4408 35.0566C19.0042 35.6022 15.4844 34.9511 12.4704 33.2123C9.4563 31.4735 7.13076 28.7524 5.8828 25.5042C4.63484 22.256 4.54015 18.6778 5.61457 15.3681C6.68899 12.0585 8.86736 9.2182 11.7852 7.3224C14.7031 5.42659 18.1835 4.59028 21.6442 4.95337C25.1049 5.31646 28.3359 6.85694 30.7967 9.31707C32.2949 10.8259 33.4625 12.6302 34.2251 14.615C34.9876 16.5998 35.3285 18.7217 35.226 20.8455Z" fill="#3333FF"/>
<path d="M20.0585 31.8472C23.1155 31.8422 26.0498 30.644 28.2365 28.5077C30.4232 26.3714 31.6896 23.4658 31.7658 20.4098H8.3512C8.42665 23.4661 9.69271 26.3721 11.8796 28.5086C14.0665 30.6451 17.0012 31.843 20.0585 31.8472Z" fill="#3333FF"/>
<path d="M78.6244 33.6V13.2293L70 33.6H65.9415L57.3951 13.3073V33.6H52.8423V5.9317H59.0862L68.0618 27.0439L76.9203 5.9317H83.2813V33.6H78.6244Z" fill="#3333FF"/>
<path d="M93.6098 22.7122L98.4878 21.9707C99.5805 21.8146 99.8927 21.2683 99.8927 20.6049C99.8927 19.0049 98.8 17.7171 96.3155 17.7171C93.935 17.7171 92.6081 19.239 92.413 21.1512L88.2764 20.2146C88.6276 16.9366 91.5935 14.0098 96.2764 14.0098C102.13 14.0098 104.354 17.3268 104.354 21.1122V30.5431C104.342 31.5627 104.421 32.5813 104.589 33.587H100.361C100.203 32.7907 100.138 31.9788 100.166 31.1675C99.2683 32.6114 97.3951 34.1724 94.3122 34.1724C90.3317 34.1724 87.8732 31.4407 87.8732 28.4358C87.8732 25.0407 90.3707 23.1805 93.6098 22.7122ZM99.8927 25.7171V24.8585L94.9366 25.6C93.5317 25.8342 92.4 26.6146 92.4 28.1756C92.4 29.4764 93.3756 30.6342 95.1707 30.6342C97.7073 30.6342 99.8927 29.4244 99.8927 25.7171Z" fill="#3333FF"/>
<path d="M109.61 33.6V14.5951H113.941V17.0146C115.034 15.0634 117.415 14.0488 119.561 14.0488C122.059 14.0488 124.244 15.1805 125.259 17.4049C126.741 14.9073 128.966 14.0488 131.437 14.0488C134.872 14.0488 138.15 16.2341 138.15 21.2683V33.6H133.766V22.0097C133.766 19.7854 132.634 18.1073 130.098 18.1073C127.717 18.1073 126.156 19.9805 126.156 22.3349V33.613H121.707V22.0097C121.707 19.8244 120.615 18.1073 118.039 18.1073C115.62 18.1073 114.098 19.9024 114.098 22.3349V33.613L109.61 33.6Z" fill="#3333FF"/>
<path d="M161.863 24.065C161.863 29.9187 157.688 34.1724 151.99 34.1724C146.293 34.1724 142.156 29.9187 142.156 24.065C142.156 18.2114 146.332 13.9837 151.99 13.9837C157.649 13.9837 161.863 18.2634 161.863 24.065ZM157.311 24.065C157.311 20.1236 154.813 18.0943 152.003 18.0943C149.193 18.0943 146.696 20.1236 146.696 24.065C146.696 28.0065 149.232 30.1138 152.003 30.1138C154.774 30.1138 157.298 28.0585 157.298 24.065H157.311Z" fill="#3333FF"/>
</svg>
