<svg width="30" height="18" viewBox="0 0 30 18" fill="none" xmlns="http://www.w3.org/2000/svg">
<g clip-path="url(#clip0_1608_480)">
<path d="M18.9165 2.18652H11.0625V15.8135H18.9165V2.18652Z" fill="#FF5F00"/>
<path d="M11.5618 9.00073C11.5612 7.68503 11.8695 6.38756 12.4618 5.21273C13.0622 4.02419 13.927 2.98904 14.9898 2.18673C13.6538 1.17729 12.0666 0.553662 10.4008 0.383728C8.72968 0.20979 7.04272 0.493945 5.5208 1.20573C4.0176 1.90613 2.74068 3.01365 1.8348 4.40273C0.94402 5.77098 0.468856 7.36806 0.466797 9.00073C0.466797 10.6267 0.940797 12.2207 1.8348 13.5987C2.74045 14.9876 4.01699 16.0951 5.5198 16.7957C7.04202 17.5077 8.72935 17.7919 10.4008 17.6177C12.0666 17.4478 13.6538 16.8242 14.9898 15.8147C13.9275 15.0126 13.0631 13.9778 12.4628 12.7897C11.87 11.6147 11.5613 10.3169 11.5618 9.00073Z" fill="#EB001B"/>
<path d="M29.5123 8.99984C29.5123 10.6258 29.0383 12.2198 28.1453 13.5978C27.2394 14.987 25.9625 16.0945 24.4593 16.7948C22.9373 17.5067 21.2504 17.7908 19.5793 17.6168C17.9131 17.4471 16.3255 16.8234 14.9893 15.8138C16.0509 15.0109 16.9149 13.9758 17.5153 12.7878C18.108 11.613 18.4173 10.3157 18.4183 8.99984C18.4174 7.68439 18.1085 6.38742 17.5163 5.21284C16.916 4.02446 16.052 2.98908 14.9903 2.18584C16.3259 1.17657 17.9128 0.552949 19.5783 0.382837C21.2497 0.208714 22.937 0.492873 24.4593 1.20484C25.9625 1.90524 27.2394 3.01275 28.1453 4.40184C29.0357 5.7702 29.5105 7.36727 29.5123 8.99984ZM28.6563 14.3728V14.0928H28.7723V14.0368H28.4763V14.0928H28.5923V14.3728H28.6563ZM29.2323 14.3728V14.0358H29.1413L29.0363 14.2678L28.9313 14.0358H28.8413V14.3728H28.9053V14.1188L29.0033 14.3378H29.0703L29.1683 14.1178V14.3728H29.2323Z" fill="#F79E1B"/>
</g>
<defs>
<clipPath id="clip0_1608_480">
<rect width="30" height="18" fill="white"/>
</clipPath>
</defs>
</svg>
