<svg width="51" height="18" viewBox="0 0 51 18" fill="none" xmlns="http://www.w3.org/2000/svg">
<path d="M20.4202 1.41113L17.8292 16.6211H21.9742L24.5682 1.41113H20.4212H20.4202ZM14.3532 1.42813L10.2932 11.8011L9.86016 10.2351C9.06016 8.34813 6.78616 5.63713 4.11816 3.92913L7.83016 16.6141L12.2162 16.6061L18.7452 1.42513L14.3532 1.42813Z" fill="#0085F3"/>
<path d="M8.286 2.51741C8.046 1.59041 7.347 1.31441 6.48 1.28141H0.053L0 1.58441C5.001 2.79741 8.31 5.72141 9.684 9.23641L8.286 2.51741ZM32.97 4.32741C34.0332 4.30378 35.0897 4.50199 36.072 4.90941L36.446 5.08541L37.007 1.78941C36.187 1.48041 34.9 1.14941 33.294 1.14941C29.198 1.14941 26.31 3.21341 26.288 6.16941C26.261 8.35441 28.345 9.57441 29.918 10.3024C31.534 11.0484 32.075 11.5224 32.068 12.1894C32.055 13.2074 30.78 13.6744 29.588 13.6744C27.928 13.6744 27.047 13.4454 25.686 12.8784L25.151 12.6354L24.568 16.0394C25.538 16.4654 27.328 16.8304 29.187 16.8494C33.544 16.8494 36.377 14.8114 36.406 11.6524C36.424 9.92441 35.319 8.60541 32.923 7.52241C31.473 6.81741 30.586 6.34841 30.594 5.63541C30.594 5.00341 31.347 4.32741 32.97 4.32741ZM47.646 1.42841H44.443C43.448 1.42841 42.708 1.69941 42.271 2.69141L36.116 16.6304H40.469C40.469 16.6304 41.179 14.7564 41.34 14.3454L46.649 14.3514C46.772 14.8824 47.154 16.6304 47.154 16.6304H51L47.646 1.42841ZM42.533 11.2324C42.874 10.3594 44.185 6.98141 44.185 6.98141C44.162 7.02341 44.523 6.10141 44.737 5.52941L45.017 6.84041L45.977 11.2324H42.533Z" fill="#0085F3"/>
</svg>
